<?xml version="1.0" encoding="utf-8"?>
<!-- Generator: Adobe Illustrator 16.0.4, SVG Export Plug-In . SVG Version: 6.00 Build 0)  -->
<!DOCTYPE svg PUBLIC "-//W3C//DTD SVG 1.1//EN" "http://www.w3.org/Graphics/SVG/1.1/DTD/svg11.dtd">
<svg version="1.1" id="Layer_1" xmlns="http://www.w3.org/2000/svg" xmlns:xlink="http://www.w3.org/1999/xlink" x="0px" y="0px"
	 width="104px" height="124px" viewBox="0 0 104 124" enable-background="new 0 0 104 124" xml:space="preserve">
<g>
	<path fill="none" stroke="#BC9840" stroke-width="2.8347" d="M65.591,63.809h12.746c0,0,0.143,29.175-26.209,29.175
		c-26.349,0-26.208-29.175-26.208-29.175h12.749"/>
	<path fill="#BC9840" d="M59.411,105.874c0,0,0.111-9.1,4.092-11.187c0,0,2.275,1.329,0,6.826c0,0,3.603-9.669,9.859-11.942
		c0,0,1.742,3.479-1.518,8.149c0,0,5.308-2.462,6.067-11.374c0,0,0.947-4.55,5.875-7.391c0,0,2.572,3.537-0.947,9.855
		c0,0,3.029,0,3.029-2.654c0,0-0.755-15.164,2.471-18.957c0,0,3.03,3.603,3.03,10.237c0,0,3.983-1.138,1.139-6.824l-2.276-4.928
		c0,0-0.947-6.826-0.187-9.292c0,0,4.736,3.225,4.736,6.638v-6.638c0,0-10.236-7.962-9.477-14.785c0,0,6.189,1.305,8.15,5.496
		c0,0-0.947-5.12-3.41-7.392c0,0-7.206-3.984-5.689-7.773h3.411c0,0-5.687-6.759-5.687-11.818c0,0-0.188-2.59,2.653-1.072
		c0,0,4.559,6.419,4.364,12.307c0,0,0.757-5.675,2.271-6.243c0,0,3.412,0.38,3.412,16.495c0,0-0.082-3.793,1.38-4.552
		c0,0,5.005-0.517,1.086,18.957l-0.19,6.209c0,0,2.275-4.879,4.548-6.966c0,0,2.274,9.083-5.443,19.525c0,0,4.688-2.273,7.719-1.326
		c0,0,2.229,4.709-14.404,13.648c0,0,10.424,0,10.806,2.275c0,0,1.129,3.98-18.584,5.308l-3.226,1.132
		c0,0,12.518,0.197,12.709,5.127c0,0,1.99,0.989-9.483,0.758l-8.715-0.569l-3.313,0.652c0,0,9.379,2.001,10.137,4.087l-0.567,3.601
		c0,0-2.524,1.327-8.532-1.896l-5.214-3.599l-2.275,1.05l4.457,4.717c0,0,0.758,3.112-7.396,0c0,0-2.083-1.218-4.737-1.218v-2.654
		H59.411z"/>
	<path fill="#BC9840" d="M44.753,105.114c0,0-0.108-9.098-4.091-11.183c0,0-2.274,1.327,0,6.822c0,0-3.601-9.667-9.857-11.942
		c0,0-1.744,3.48,1.519,8.15c0,0-5.312-2.463-6.068-11.372c0,0-0.947-4.549-5.878-7.395c0,0-2.572,3.541,0.949,9.857
		c0,0-3.035,0-3.035-2.654c0,0,0.762-15.165-2.463-18.958c0,0-3.034,3.605-3.034,10.237c0,0-3.98-1.136-1.139-6.822l2.276-4.93
		c0,0,0.951-6.826,0.193-9.289c0,0-4.742,3.222-4.742,6.635v-6.635c0,0,10.237-7.962,9.477-14.788c0,0-6.19,1.306-8.149,5.496
		c0,0,0.945-5.116,3.415-7.391c0,0,7.201-3.98,5.685-7.773h-3.413c0,0,5.687-6.762,5.687-11.815c0,0,0.191-2.593-2.653-1.075
		c0,0-4.555,6.419-4.365,12.311c0,0-0.754-5.675-2.271-6.243c0,0-3.411,0.379-3.411,16.492c0,0,0.082-3.792-1.381-4.549
		c0,0-5.003-0.52-1.085,18.957l0.191,6.207c0,0-2.275-4.879-4.55-6.965c0,0-2.271,9.082,5.444,19.528c0,0-4.685-2.277-7.718-1.33
		c0,0-2.229,4.714,14.409,13.65c0,0-10.428,0-10.809,2.276c0,0-1.131,3.981,18.583,5.309l3.225,1.132c0,0-12.516,0.195-12.706,5.123
		c0,0-1.994,0.993,9.48,0.76l8.716-0.568l3.313,0.653c0,0-9.377,1.998-10.136,4.083l0.569,3.603c0,0,2.521,1.327,8.53-1.896
		l5.216-3.602l2.275,1.054l-4.458,4.714c0,0-0.758,3.115,7.395,0c0,0,2.083-1.219,4.738-1.219v-2.654H44.753z"/>
	<g>
		<g>
			<path fill="#FFFFFF" d="M52.085,80.937C40.449,80.89,36.829,71.49,36.541,66.521l-0.002-40.917l0.009-0.078
				c0.506-4.55,4.405-13.157,15.538-13.202c0,0,0.027,0,0.041,0c11.171,0.024,15.078,8.647,15.584,13.203l0.009,0.078v40.835
				C67.43,71.49,63.811,80.89,52.174,80.937v0L52.085,80.937z"/>
			<path fill="#89221F" d="M52.174,13.74c-0.015,0-0.029,0-0.045,0c-0.015,0-0.029,0-0.044,0H52.174 M52.129,13.74
				c12.85,0.028,14.173,11.942,14.173,11.942v40.757c0,0-0.755,13.052-14.173,13.081c-13.416-0.029-14.173-13.081-14.173-13.081
				V25.682C37.956,25.682,39.281,13.768,52.129,13.74 M52.129,79.52c0.016,0,0.03,0,0.045,0h-0.089
				C52.1,79.52,52.114,79.52,52.129,79.52 M52.174,10.905h-0.089c-12.136,0.045-16.392,9.477-16.947,14.463l-0.017,0.156v0.157
				v40.757v0.082l0.004,0.082c0.009,0.157,1.094,15.693,16.959,15.751l0,0h0.089l0,0c15.868-0.066,16.949-15.595,16.958-15.752
				l0.005-0.082v-0.082V25.682v-0.157l-0.018-0.156C68.565,20.383,64.311,10.951,52.174,10.905L52.174,10.905L52.174,10.905z"/>
		</g>
	</g>
	<g>
		<path fill="#89221F" d="M52.085,79.763C38.637,79.706,37.72,66.585,37.712,66.453V25.682c0.015-0.151,0.361-3.097,2.308-6.093
			c1.796-2.765,5.347-6.063,12.065-6.092c0,0,0.029,0,0.044,0c6.747,0.014,10.31,3.321,12.109,6.092
			c1.946,2.996,2.292,5.942,2.306,6.066l0.002,40.784c-0.009,0.147-0.924,13.267-14.372,13.325l0,0H52.085z"/>
		<path fill="#FFFFFF" d="M52.174,13.74c-0.015,0-0.029,0-0.045,0c-0.015,0-0.029,0-0.044,0H52.174 M52.129,13.74
			c12.85,0.028,14.173,11.942,14.173,11.942v40.757c0,0-0.755,13.052-14.172,13.081c-13.417-0.029-14.174-13.081-14.174-13.081
			V25.682C37.956,25.682,39.281,13.768,52.129,13.74 M52.13,79.52c0.015,0,0.029,0,0.044,0h-0.089
			C52.1,79.52,52.114,79.52,52.13,79.52 M52.174,13.252h-0.089l0,0c-13.092,0.055-14.601,12.252-14.614,12.376l-0.003,0.027v0.027
			v40.757c0.009,0.163,0.941,13.512,14.617,13.569l0,0h0.089v0c13.677-0.058,14.607-13.405,14.615-13.54V25.682v-0.027l-0.003-0.027
			C66.772,25.504,65.267,13.307,52.174,13.252L52.174,13.252L52.174,13.252z"/>
	</g>
	<g>
		<path fill="#BC9840" d="M52.084,79.763C38.637,79.706,37.72,66.585,37.712,66.453V25.682c0.015-0.151,0.361-3.09,2.301-6.083
			c1.795-2.768,5.346-6.074,12.071-6.103l0.245-0.001v66.27L52.084,79.763z"/>
		<path fill="#FFFFFF" d="M52.174,13.74c-0.03,0-0.06,0-0.089,0H52.174 M52.085,13.74v65.78
			c-13.374-0.058-14.129-13.081-14.129-13.081V25.682C37.956,25.682,39.278,13.795,52.085,13.74 M52.085,79.52
			c0.029,0,0.06,0,0.089,0H52.085 M52.572,13.25l-0.489,0.002c-13.09,0.057-14.599,12.252-14.612,12.376l-0.003,0.027v0.027v40.757
			c0.009,0.163,0.941,13.51,14.615,13.568l0.489,0.002v-0.49V13.74V13.25L52.572,13.25z"/>
	</g>
	<g>
		<path fill="none" stroke="#B4975A" stroke-width="0.8504" d="M56.186,28.053h7.77v5.119c0,0-3.887,5.688-7.77,0V28.053z"/>
		<polygon fill="#B4975A" points="59.312,35.741 59.312,51.562 56.563,55.351 56.563,62.178 59.783,66.347 63.195,62.178 
			63.195,55.351 60.253,51.562 60.278,35.741 		"/>
		<path fill="#FFFFFF" stroke="#FFFFFF" stroke-width="0.4877" d="M45.9,63.809H42.39c0,0,2.656-2.39,2.562-4.285l-0.569-20.002
			c0,0-3.318,0.474-4.171,1.707v-5.445c0,0,1.707,3.076,4.362,1.652v-8.244c0,0-0.863-1.138-2.185-1.138h3.13h0.047h3.133
			c-1.322,0-2.184,1.138-2.184,1.138v8.244c2.655,1.424,4.36-1.652,4.36-1.652v5.445c-0.853-1.232-4.172-1.707-4.172-1.707
			l-0.568,20.002c-0.096,1.895,2.563,4.285,2.563,4.285h-3.511H45.9z"/>
	</g>
	<path fill="none" d="M-13.02,103.015c0,0,66.643,41.346,111.026,5.514"/>
	<text transform="matrix(0.9432 0.3322 -0.3322 0.9432 10.8364 114.4199)"><tspan x="0" y="0" fill="#BC9840" font-family="'Arial-BoldMT'" font-size="10.6162">C</tspan><tspan x="7.91" y="-0.003" fill="#BC9840" font-family="'Arial-BoldMT'" font-size="10.6162" rotate="-2.994">R</tspan><tspan x="15.731" y="-0.46" fill="#BC9840" font-family="'Arial-BoldMT'" font-size="10.6162" rotate="-5.237">I</tspan><tspan x="18.857" y="-0.699" fill="#BC9840" font-family="'Arial-BoldMT'" font-size="10.6162" rotate="-7.655">C</tspan><tspan x="26.77" y="-1.769" fill="#BC9840" font-family="'Arial-BoldMT'" font-size="10.6162" rotate="-11.533">K</tspan><tspan x="34.609" y="-3.387" fill="#BC9840" font-family="'Arial-BoldMT'" font-size="10.6162" rotate="-15.758">E</tspan><tspan x="41.773" y="-5.43" fill="#BC9840" font-family="'Arial-BoldMT'" font-size="10.6162" rotate="-20.161">T</tspan><tspan x="48.082" y="-7.808" fill="#BC9840" font-family="'Arial-BoldMT'" font-size="10.6162" rotate="-23.522"> </tspan><tspan x="51.116" y="-9.046" fill="#BC9840" font-family="'Arial-BoldMT'" font-size="10.6162" rotate="-27.632">C</tspan><tspan x="58.33" y="-12.88" fill="#BC9840" font-family="'Arial-BoldMT'" font-size="10.6162" rotate="-33.651">L</tspan><tspan x="64.153" y="-16.743" fill="#BC9840" font-family="'Arial-BoldMT'" font-size="10.6162" rotate="-40.144">U</tspan><tspan x="70.458" y="-22.111" fill="#BC9840" font-family="'Arial-BoldMT'" font-size="10.6162" rotate="-47.57">B</tspan></text>
	<path fill="none" d="M19.499,22.557c0,0,25.068-34.5,58.052-3.318"/>
	<text transform="matrix(0.8194 -0.5732 0.5732 0.8194 27.1875 14.668)"><tspan x="0" y="0" fill="#BC9840" font-family="'Arial-BoldMT'" font-size="8.3413">K</tspan><tspan x="5.888" y="0.078" fill="#BC9840" font-family="'Arial-BoldMT'" font-size="8.3413" rotate="5.393">I</tspan><tspan x="8.072" y="0.176" fill="#BC9840" font-family="'Arial-BoldMT'" font-size="8.3413" rotate="11.366">R</tspan><tspan x="13.78" y="1.295" fill="#BC9840" font-family="'Arial-BoldMT'" font-size="8.3413" rotate="21.068">K</tspan><tspan x="19.181" y="3.345" fill="#BC9840" font-family="'Arial-BoldMT'" font-size="8.3413" rotate="31.679">B</tspan><tspan x="24.103" y="6.357" fill="#BC9840" font-family="'Arial-BoldMT'" font-size="8.3413" rotate="42.478">U</tspan><tspan x="28.383" y="10.261" fill="#BC9840" font-family="'Arial-BoldMT'" font-size="8.3413" rotate="52.589">R</tspan><tspan x="31.906" y="14.918" fill="#BC9840" font-family="'Arial-BoldMT'" font-size="8.3413" rotate="60.784">T</tspan><tspan x="34.344" y="19.188" fill="#BC9840" font-family="'Arial-BoldMT'" font-size="8.3413" rotate="67.946">O</tspan><tspan x="36.706" y="25.062" fill="#BC9840" font-family="'Arial-BoldMT'" font-size="8.3413" rotate="74.273">N</tspan></text>
	<path fill="none" d="M33.882,3.218c0,0-19.647,73.818,7.092,85.027c32.719,13.717,36.383-25.927,36.383-25.927"/>
	<text transform="matrix(0.2154 0.9765 -0.9765 0.2154 27.8257 66.7754)"><tspan x="0" y="0" fill="#BC9840" font-family="'Arial-BoldMT'" font-size="9.0997">D</tspan><tspan x="7.287" y="-0.036" fill="#BC9840" font-family="'Arial-BoldMT'" font-size="9.0997" rotate="-9.717">E</tspan><tspan x="14.609" y="-1.318" fill="#BC9840" font-family="'Arial-BoldMT'" font-size="9.0997" rotate="-27.764">O</tspan><tspan x="21.845" y="-5.855" fill="#BC9840" font-family="'Arial-BoldMT'" font-size="9.0997" rotate="-48.526"> </tspan><tspan x="23.95" y="-8.305" fill="#BC9840" font-family="'Arial-BoldMT'" font-size="9.0997" rotate="-58.158">J</tspan><tspan x="27.081" y="-13.278" fill="#BC9840" font-family="'Arial-BoldMT'" font-size="9.0997" rotate="-69.084">U</tspan><tspan x="29.746" y="-20.806" fill="#BC9840" font-family="'Arial-BoldMT'" font-size="9.0997" rotate="-88.189">V</tspan><tspan x="29.652" y="-28.693" fill="#BC9840" font-family="'Arial-BoldMT'" font-size="9.0997" rotate="-112.889">A</tspan><tspan x="26.222" y="-35.944" fill="#BC9840" font-family="'Arial-BoldMT'" font-size="9.0997" rotate="-132.695">N</tspan><tspan x="21.073" y="-41.264" fill="#BC9840" font-family="'Arial-BoldMT'" font-size="9.0997" rotate="-144.23">T</tspan><tspan x="16.062" y="-44.823" fill="#BC9840" font-family="'Arial-BoldMT'" font-size="9.0997" rotate="-152.074">E</tspan></text>
</g>
</svg>
